<?xml version="1.0" encoding="UTF-8" standalone="no"?>
<svg
   id="visual"
   viewBox="0 0 1920 257.79001"
   width="1920"
   height="257.79001"
   version="1.1"
   sodipodi:docname="waves.svg"
   inkscape:version="1.2.2 (732a01da63, 2022-12-09)"
   xmlns:inkscape="http://www.inkscape.org/namespaces/inkscape"
   xmlns:sodipodi="http://sodipodi.sourceforge.net/DTD/sodipodi-0.dtd"
   xmlns="http://www.w3.org/2000/svg"
   xmlns:svg="http://www.w3.org/2000/svg">
  <defs
     id="defs11" />
  <sodipodi:namedview
     id="namedview9"
     pagecolor="#505050"
     bordercolor="#ffffff"
     borderopacity="1"
     inkscape:showpageshadow="0"
     inkscape:pageopacity="0"
     inkscape:pagecheckerboard="1"
     inkscape:deskcolor="#505050"
     showgrid="false"
     inkscape:zoom="0.34114583"
     inkscape:cx="108.45802"
     inkscape:cy="-112.85496"
     inkscape:window-width="1920"
     inkscape:window-height="991"
     inkscape:window-x="-9"
     inkscape:window-y="-9"
     inkscape:window-maximized="1"
     inkscape:current-layer="visual" />
  <path
     d="m 0,252 45.7,2.7 c 45.6,2.6 137,8 228.5,-7.2 91.5,-15.2 183.1,-50.8 274.6,-54 91.5,-3.2 182.9,26.2 274.2,38 91.3,11.8 182.7,6.2 274,-4.8 91.3,-11 182.7,-27.4 274.2,-29.9 91.5,-2.5 183.1,8.9 274.6,9.7 91.5,0.8 182.9,-8.8 228.5,-13.7 L 1920,188 V 0 h -45.7 c -45.6,0 -137,0 -228.5,0 -91.5,0 -183.1,0 -274.6,0 C 1279.7,0 1188.3,0 1097,0 1005.7,0 914.3,0 823,0 731.7,0 640.3,0 548.8,0 457.3,0 365.7,0 274.2,0 182.7,0 91.3,0 45.7,0 H 0 Z"
     fill="#8fb8ed"
     id="path2" />
  <path
     d="m 0,103 45.7,15 c 45.6,15 137,45 228.5,57.3 91.5,12.4 183.1,7 274.6,2.4 91.5,-4.7 182.9,-8.7 274.2,-19.5 91.3,-10.9 182.7,-28.5 274,-24 91.3,4.5 182.7,31.1 274.2,27.6 91.5,-3.5 183.1,-37.1 274.6,-35.3 91.5,1.8 182.9,39.2 228.5,57.8 L 1920,203 V 0 h -45.7 c -45.6,0 -137,0 -228.5,0 -91.5,0 -183.1,0 -274.6,0 C 1279.7,0 1188.3,0 1097,0 1005.7,0 914.3,0 823,0 731.7,0 640.3,0 548.8,0 457.3,0 365.7,0 274.2,0 182.7,0 91.3,0 45.7,0 H 0 Z"
     fill="#aab9f0"
     id="path4" />
  <path
     d="m 0,105 45.7,4.8 c 45.6,4.9 137,14.5 228.5,5.5 91.5,-9 183.1,-36.6 274.6,-49.6 91.5,-13 182.9,-11.4 274.2,-0.9 91.3,10.5 182.7,29.9 274,40.7 91.3,10.8 182.7,13.2 274.2,8.2 91.5,-5 183.1,-17.4 274.6,-28.7 91.5,-11.3 182.9,-21.7 228.5,-26.8 L 1920,53 V 0 h -45.7 c -45.6,0 -137,0 -228.5,0 -91.5,0 -183.1,0 -274.6,0 C 1279.7,0 1188.3,0 1097,0 1005.7,0 914.3,0 823,0 731.7,0 640.3,0 548.8,0 457.3,0 365.7,0 274.2,0 182.7,0 91.3,0 45.7,0 H 0 Z"
     fill="#c2bbf0"
     id="path6" />
</svg>
