<?xml version="1.0" encoding="UTF-8" standalone="no"?>
<svg
   id="visual"
   viewBox="0 0 1920 140.12994"
   width="1920"
   height="140.12994"
   version="1.1"
   xmlns="http://www.w3.org/2000/svg"
   xmlns:svg="http://www.w3.org/2000/svg">
  <defs
     id="defs7" />
  <path
     d="m 0,39.129944 40,-6.5 c 40,-6.5 120,-19.5 200,-26.8000002 80,-7.4 160,-9 240,2.6 80,11.7000002 160,36.7000002 240,41.5000002 80,4.9 160,-10.5 240,-16.1 80,-5.7 160,-1.7 240,-0.2 80,1.5 160,0.5 240,-5 80,-5.5 160,-15.5 240,-11.7 80,3.9 160,21.5 200,30.4 l 40,8.8 v 83.999996 h -40 c -40,0 -120,0 -200,0 -80,0 -160,0 -240,0 -80,0 -160,0 -240,0 -80,0 -160,0 -240,0 -80,0 -160,0 -240,0 -80,0 -160,0 -240,0 -80,0 -160,0 -240,0 -80,0 -160,0 -200,0 H 0 Z"
     fill="#8fb8ed"
     stroke-linecap="round"
     stroke-linejoin="miter"
     id="path2" />
</svg>
