<?xml version="1.0" encoding="UTF-8" standalone="no"?>
<svg
   id="visual"
   viewBox="0 0 1920 197.80368"
   width="1920"
   height="197.80368"
   version="1.1"
   xmlns="http://www.w3.org/2000/svg"
   xmlns:svg="http://www.w3.org/2000/svg">
  <defs
     id="defs7" />
  <path
     d="m 0,182 32,4 c 32,4 96,12 160,11.8 64,-0.1 128,-8.5 192,-22.3 64,-13.8 128,-33.2 192,-47.7 64,-14.5 128,-24.1 192,-21.3 64,2.8 128,18.2 192,27.3 64,9.2 128,12.2 192,4.9 64,-7.4 128,-25 192,-16.2 64,8.8 128,44.2 192,55.3 64,11.2 128,-1.8 192,-4 64,-2.1 128,6.5 160,10.9 l 32,4.3 V 0 h -32 c -32,0 -96,0 -160,0 -64,0 -128,0 -192,0 -64,0 -128,0 -192,0 -64,0 -128,0 -192,0 C 1088,0 1024,0 960,0 896,0 832,0 768,0 704,0 640,0 576,0 512,0 448,0 384,0 320,0 256,0 192,0 128,0 64,0 32,0 H 0 Z"
     fill="#8fb8ed"
     stroke-linecap="round"
     stroke-linejoin="miter"
     id="path2" />
</svg>
